<svg width="260" height="260" viewBox="0 0 260 260" fill="none" xmlns="http://www.w3.org/2000/svg">
<path fill-rule="evenodd" clip-rule="evenodd" d="M260 130C260 201.797 201.797 260 130 260C58.203 260 0 201.797 0 130C0 58.203 58.203 0 130 0C201.797 0 260 58.203 260 130ZM239 130C239 190.199 190.199 239 130 239C69.801 239 21 190.199 21 130C21 69.801 69.801 21 130 21C190.199 21 239 69.801 239 130ZM218 130C218 178.601 178.601 218 130 218C81.3989 218 42 178.601 42 130C42 81.3989 81.3989 42 130 42C178.601 42 218 81.3989 218 130ZM197 130C197 167.003 167.003 197 130 197C92.9969 197 63 167.003 63 130C63 92.9969 92.9969 63 130 63C167.003 63 197 92.9969 197 130Z" fill="#F1275D"/>
</svg>
